<svg height="798" width="720" xmlns="http://www.w3.org/2000/svg">
<rect height="798" fill="#555" width="720"></rect>
<text fill="#7f7" font-family="Courier New" font-size="12" xml:space="preserve">
<tspan x="10" y="26">4 megabytes installed</tspan>
<tspan x="10" y="42"></tspan>
<tspan x="10" y="58">node_modules</tspan>
<tspan x="10" y="74">└─┬ httpster@1.0.3 </tspan>
<tspan x="10" y="90">  ├─┬ commander@1.2.0 </tspan>
<tspan x="10" y="106">  │ └── keypress@0.1.0 </tspan>
<tspan x="10" y="122">  ├── cors@2.4.2 </tspan>
<tspan x="10" y="138">  ├─┬ express@3.2.6 </tspan>
<tspan x="10" y="154">  │ ├── buffer-crc32@0.2.1 </tspan>
<tspan x="10" y="170">  │ ├── commander@0.6.1 </tspan>
<tspan x="10" y="186">  │ ├─┬ connect@2.7.11 </tspan>
<tspan x="10" y="202">  │ │ ├── bytes@0.2.0 </tspan>
<tspan x="10" y="218">  │ │ ├── cookie@0.0.5 </tspan>
<tspan x="10" y="234">  │ │ ├── formidable@1.0.14 </tspan>
<tspan x="10" y="250">  │ │ ├── pause@0.0.1 </tspan>
<tspan x="10" y="266">  │ │ ├── qs@0.6.5 </tspan>
<tspan x="10" y="282">  │ │ └─┬ send@0.1.1 </tspan>
<tspan x="10" y="298">  │ │   └── mime@1.2.11 </tspan>
<tspan x="10" y="314">  │ ├── cookie@0.1.0 </tspan>
<tspan x="10" y="330">  │ ├── cookie-signature@1.0.1 </tspan>
<tspan x="10" y="346">  │ ├─┬ debug@2.6.3 </tspan>
<tspan x="10" y="362">  │ │ └── ms@0.7.2 </tspan>
<tspan x="10" y="378">  │ ├── fresh@0.1.0 </tspan>
<tspan x="10" y="394">  │ ├── methods@0.0.1 </tspan>
<tspan x="10" y="410">  │ ├── mkdirp@0.3.4 </tspan>
<tspan x="10" y="426">  │ ├── range-parser@0.0.4 </tspan>
<tspan x="10" y="442">  │ └─┬ send@0.1.0 </tspan>
<tspan x="10" y="458">  │   └── mime@1.2.6 </tspan>
<tspan x="10" y="474">  ├─┬ node-env-file@0.1.4 </tspan>
<tspan x="10" y="490">  │ └─┬ chai@3.5.0 </tspan>
<tspan x="10" y="506">  │   ├── assertion-error@1.0.2 </tspan>
<tspan x="10" y="522">  │   ├─┬ deep-eql@0.1.3 </tspan>
<tspan x="10" y="538">  │   │ └── type-detect@0.1.1 </tspan>
<tspan x="10" y="554">  │   └── type-detect@1.0.0 </tspan>
<tspan x="10" y="570">  └─┬ serve-index@1.8.0 </tspan>
<tspan x="10" y="586">    ├─┬ accepts@1.3.3 </tspan>
<tspan x="10" y="602">    │ └── negotiator@0.6.1 </tspan>
<tspan x="10" y="618">    ├── batch@0.5.3 </tspan>
<tspan x="10" y="634">    ├─┬ debug@2.2.0 </tspan>
<tspan x="10" y="650">    │ └── ms@0.7.1 </tspan>
<tspan x="10" y="666">    ├── escape-html@1.0.3 </tspan>
<tspan x="10" y="682">    ├─┬ http-errors@1.5.1 </tspan>
<tspan x="10" y="698">    │ ├── inherits@2.0.3 </tspan>
<tspan x="10" y="714">    │ ├── setprototypeof@1.0.2 </tspan>
<tspan x="10" y="730">    │ └── statuses@1.3.1 </tspan>
<tspan x="10" y="746">    ├─┬ mime-types@2.1.15 </tspan>
<tspan x="10" y="762">    │ └── mime-db@1.27.0 </tspan>
<tspan x="10" y="778">    └── parseurl@1.3.1</tspan>
</text>
</svg>
